<svg width="20" height="20" viewBox="0 0 20 20" xmlns="http://www.w3.org/2000/svg">
    <g fill="none" fill-rule="evenodd">
        <path d="M0 0h20v20H0z"/>
        <path d="M13.875 3.5c.526 0 1.026.217 1.38.593l.085.098.227.278h.556c.99 0 1.8.751 1.872 1.704L18 6.31v7.849c0 .98-.781 1.782-1.766 1.838l-.11.003H3.876c-1 0-1.817-.766-1.874-1.733L2 14.16V6.31c0-.98.781-1.782 1.766-1.838l.11-.003h6.285l.227-.278a1.887 1.887 0 0 1 1.31-.685l.13-.006h2.047zm0 1.357h-2.021a.5.5 0 0 0-.335.128l-.051.053-.434.533a.695.695 0 0 1-.462.25l-.078.005H3.877a.49.49 0 0 0-.49.418l-.004.066v7.849c0 .245.185.448.427.48l.067.004h12.246a.49.49 0 0 0 .49-.418l.004-.066V6.31a.488.488 0 0 0-.427-.48l-.067-.004h-.888a.698.698 0 0 1-.488-.198l-.052-.057-.435-.533a.496.496 0 0 0-.311-.176l-.074-.005zM10 7.134c1.745 0 3.16 1.388 3.16 3.1 0 1.713-1.415 3.101-3.16 3.101s-3.16-1.388-3.16-3.1c0-1.713 1.415-3.101 3.16-3.101zm0 1.356c-.982 0-1.778.781-1.778 1.744 0 .964.796 1.745 1.778 1.745s1.778-.781 1.778-1.745c0-.963-.796-1.744-1.778-1.744zm4.84-1.356c.381 0 .69.303.69.678 0 .375-.309.678-.69.678a.685.685 0 0 1-.692-.678c0-.375.31-.678.692-.678z" fill="#2E3233" fill-rule="nonzero"/>
    </g>
</svg>
