<svg width="20" height="20" viewBox="0 0 20 20" xmlns="http://www.w3.org/2000/svg">
    <g fill="none" fill-rule="evenodd">
        <path d="M0 0h20v20H0z"/>
        <path d="M10.049 1.52c3.5 0 6.406 2.312 6.562 5.288l.006.157V11.814a6.569 6.569 0 0 1-13.134.178l-.003-.178V7.052l.001-.087c.06-3.051 3.007-5.445 6.568-5.445zm.086 1.373h-.086c-2.807 0-5.06 1.784-5.19 3.965l-.005.134-.001 4.822a5.196 5.196 0 0 0 4.953 5.19l.157.005h.086a5.196 5.196 0 0 0 5.194-5.036l.002-.16V7.067l-.003-.141c-.087-2.189-2.312-3.996-5.107-4.032zm-.061 1.274c2.164 0 3.946 1.607 3.946 3.627 0 2.02-1.782 3.628-3.946 3.628-2.165 0-3.947-1.608-3.947-3.628s1.782-3.627 3.947-3.627zm0 1.372C8.637 5.54 7.5 6.565 7.5 7.794c0 1.229 1.137 2.255 2.574 2.255 1.436 0 2.573-1.026 2.573-2.255 0-1.229-1.137-2.255-2.573-2.255zm-.05 1.618c.312 0 .564.263.564.588a.576.576 0 0 1-.563.588.576.576 0 0 1-.564-.588c0-.325.252-.588.564-.588z" fill="#2E3233" fill-rule="nonzero"/>
    </g>
</svg>
